<svg version="1.1" id="Layer_1" xmlns="http://www.w3.org/2000/svg" xmlns:xlink="http://www.w3.org/1999/xlink" x="0px" y="0px"
	 width="100%" viewBox="0 0 657 294" enable-background="new 0 0 657 294" xml:space="preserve">
<path fill="#FFFFFF" opacity="1.000000" stroke="none" 
	d="
M500.000000,295.000000 
	C333.333344,295.000000 167.166672,295.000000 1.000000,295.000000 
	C1.000000,197.000000 1.000000,99.000000 1.000000,1.000000 
	C220.000000,1.000000 439.000000,1.000000 658.000000,1.000000 
	C658.000000,99.000000 658.000000,197.000000 658.000000,295.000000 
	C605.500000,295.000000 553.000000,295.000000 500.000000,295.000000 
M143.898132,116.001976 
	C147.660095,115.655098 151.422058,115.308220 155.768661,114.667374 
	C167.653595,100.867294 179.538513,87.067215 192.480743,72.039459 
	C188.371964,72.039459 185.918213,72.038696 183.464447,72.039581 
	C158.171509,72.048744 132.877823,72.158752 107.586334,71.971764 
	C103.202827,71.939362 101.934998,73.164047 101.958694,77.577248 
	C102.137405,110.856499 102.061546,144.137115 102.065170,177.417313 
	C102.065369,179.188904 102.065193,180.960510 102.065193,182.739578 
	C98.417686,182.739578 95.355766,182.739578 92.101082,182.739578 
	C92.101082,168.970047 92.101082,155.520874 92.823151,141.592453 
	C92.875534,120.367340 92.937019,99.142235 92.939064,77.917114 
	C92.939133,77.236877 92.329903,76.556564 91.693306,75.262733 
	C91.308578,74.557404 91.036331,73.754715 90.522552,73.161064 
	C79.481575,60.403622 68.438187,47.647945 57.303341,34.972675 
	C56.427448,33.975605 54.878288,33.569981 53.230988,32.663223 
	C53.143276,34.251060 53.075001,34.910484 53.074944,35.569920 
	C53.069687,97.795166 53.065441,160.020401 53.099636,222.245636 
	C53.100311,223.479385 53.555161,224.712860 54.278046,226.713242 
	C54.765053,226.803604 55.252007,226.972748 55.739067,226.973068 
	C82.516830,226.990417 109.294624,227.004578 136.072296,226.955978 
	C137.085846,226.954147 138.098297,226.330963 139.635818,225.750992 
	C139.786804,225.199036 139.937775,224.647064 140.814667,223.613434 
	C140.819504,217.410065 140.824326,211.206696 140.970871,204.095566 
	C140.909088,200.714554 140.847305,197.333527 140.912476,193.566132 
	C140.912476,193.566132 140.955383,193.161667 141.734406,192.710083 
	C141.753983,174.171341 141.773560,155.632599 141.925125,136.245544 
	C141.960342,134.530487 141.995544,132.815414 142.783508,130.649170 
	C142.876526,125.758575 142.969543,120.867981 142.981934,115.981506 
	C142.981934,115.981506 142.977921,116.062119 143.898132,116.001976 
M313.431396,259.970398 
	C316.234344,264.443787 320.658234,263.563263 324.573975,262.743866 
	C326.266205,262.389740 328.359192,260.112091 328.812714,258.336090 
	C330.874664,250.261566 323.053711,250.697891 318.952026,247.652466 
	C320.989868,247.216690 322.889893,247.411255 324.722778,247.144592 
	C325.844482,246.981400 326.863159,246.110214 327.928101,245.556961 
	C327.186188,244.479309 326.654663,242.815491 325.654755,242.456589 
	C324.011963,241.866943 322.065552,242.121994 320.246979,242.023514 
	C316.822449,241.838058 314.488281,243.225937 314.054108,246.778290 
	C313.643463,250.137650 314.438019,252.905716 318.262878,253.980362 
	C320.308594,254.555115 322.240448,255.535217 324.223663,256.332367 
	C324.130096,256.821442 324.036499,257.310486 323.942932,257.799561 
	C321.778076,257.799561 319.252289,258.510925 317.530670,257.637360 
	C314.759521,256.231323 314.094788,258.022308 312.099121,259.426300 
	C310.386444,254.588104 308.762543,249.715225 306.895660,244.937286 
	C306.455414,243.810532 305.260681,242.294724 304.300598,242.208420 
	C302.690674,242.063705 299.907898,242.470016 299.504242,243.434036 
	C296.921967,249.600784 294.854156,255.982956 292.617096,262.294250 
	C293.040558,262.704102 293.464020,263.113922 293.887482,263.523743 
	C295.445557,262.637604 297.337280,262.056488 298.487976,260.797913 
	C300.505157,258.591522 303.950806,258.381714 306.222870,260.349731 
	C307.878448,261.783813 310.041016,262.632660 312.889557,264.265076 
	C312.889557,261.613281 312.889557,260.481110 313.431396,259.970398 
M162.345078,226.766800 
	C162.836334,226.841751 163.327560,226.982285 163.818832,226.982391 
	C219.103073,226.994766 274.387329,227.003220 329.671539,226.955261 
	C330.851807,226.954239 332.031464,226.297913 333.838501,225.394592 
	C333.838501,197.993042 333.838501,170.591492 333.838501,143.061996 
	C304.203644,143.061996 275.217896,143.101318 246.232529,143.014877 
	C242.378510,143.003403 241.882507,145.182220 242.125763,148.095673 
	C242.231705,149.364639 242.991592,150.600281 242.997208,151.853104 
	C243.068909,167.847412 243.015900,183.842331 243.105209,199.836472 
	C243.121536,202.759598 242.203537,204.162704 239.091797,204.034210 
	C235.275742,203.876617 231.448227,203.996613 227.888336,203.996613 
	C226.482452,201.584015 225.077377,199.525482 224.023483,197.300613 
	C220.299530,189.439011 216.756104,181.491867 213.028625,173.631958 
	C209.634460,166.474884 206.263489,159.294647 202.479980,152.343613 
	C201.620636,150.764862 199.142456,149.233383 197.339600,149.147614 
	C189.859055,148.791687 182.351791,148.997711 174.854324,148.997513 
	C171.298096,148.997421 167.741852,148.997498 163.218353,148.997498 
	C171.569946,167.831375 179.466858,185.639893 187.667984,204.134460 
	C173.510315,204.134460 160.411667,204.134460 146.268448,204.134460 
	C148.826050,208.197601 150.769623,211.663010 153.082169,214.861694 
	C155.854156,218.695877 158.940933,222.302490 162.345078,226.766800 
M529.294800,31.278656 
	C519.219727,40.119423 509.144592,48.960194 498.299255,58.277870 
	C498.199493,60.095478 498.014801,61.912975 498.012451,63.730713 
	C497.957458,106.498077 497.922150,149.265472 496.960938,192.063034 
	C477.709839,192.063034 458.458710,192.063034 438.953522,192.063034 
	C438.953522,173.772095 439.052704,156.134476 438.878387,138.499573 
	C438.838623,134.479309 440.606445,133.854645 444.024445,133.871582 
	C447.467133,133.888641 449.192017,134.614395 449.127228,138.589157 
	C448.918274,151.413086 449.043091,164.242447 449.039459,177.069717 
	C449.039032,178.647003 449.039459,180.224289 449.039459,181.664154 
	C461.422119,181.664154 473.016144,181.664154 485.135437,181.664154 
	C485.135437,153.727646 485.135437,126.088509 485.135437,98.331573 
	C458.206329,98.331573 431.805939,98.331573 404.923523,98.331573 
	C404.923523,129.313934 404.923523,160.034012 404.923523,190.755981 
	C396.371216,190.755981 388.305237,190.755981 380.099640,190.755981 
	C380.099640,158.653305 380.099640,126.863327 380.822357,94.594238 
	C380.870514,73.738075 380.927490,52.881905 380.922882,32.025749 
	C380.922729,31.417803 380.271545,30.810003 379.224213,30.088621 
	C369.971954,37.428902 361.047729,45.245216 351.345093,51.931980 
	C345.468536,55.981937 344.945709,60.813435 344.967621,67.036957 
	C345.148163,118.274956 345.061707,169.513855 345.098907,220.752472 
	C345.100159,222.485138 345.553375,224.217468 346.281342,226.712677 
	C347.102325,226.807846 347.923279,226.986221 348.744263,226.986359 
	C429.211578,227.001007 509.678925,227.007187 590.146240,226.960770 
	C591.489502,226.959991 592.832397,226.309616 594.763123,225.665604 
	C604.015991,214.485291 613.268799,203.304977 622.521606,192.124680 
	C622.151733,191.701294 621.781799,191.277924 621.411865,190.854553 
	C591.693481,190.854553 561.975037,190.854553 532.028809,190.854553 
	C532.028809,173.009323 532.028809,155.563049 532.783264,137.656296 
	C532.864380,136.003342 533.016113,134.350388 533.015991,132.697433 
	C533.013611,99.626839 532.993835,66.556244 532.977539,33.485653 
	C532.976868,32.069153 532.977417,30.652651 532.977417,28.089184 
	C531.396118,29.575027 530.647827,30.278101 529.294800,31.278656 
M426.059113,70.430817 
	C426.107422,71.754204 425.788239,73.228882 426.261047,74.377510 
	C430.853119,85.532806 438.986542,91.643303 452.664520,87.893822 
	C461.159088,85.565254 466.316437,72.843613 463.350464,62.839718 
	C460.597443,53.554054 450.759613,49.339996 444.187073,50.251801 
	C432.576660,51.862503 426.876709,58.821045 426.059113,70.430817 
M111.725677,262.699158 
	C112.783127,261.637390 113.837967,260.573029 114.898544,259.514374 
	C117.557732,256.860046 119.474800,249.261108 117.594788,246.339218 
	C115.127243,242.504166 111.971664,239.399765 106.811897,238.990295 
	C99.280853,238.392624 95.778618,243.368179 92.422699,248.931641 
	C89.924660,241.304871 85.224937,238.182404 77.910416,239.061493 
	C72.064423,239.764099 67.445747,245.118073 67.320122,251.337723 
	C67.195282,257.518555 71.632683,262.685059 78.120399,263.912537 
	C84.176331,265.058289 89.837006,261.345428 92.557732,254.442993 
	C99.142906,263.819794 102.609177,265.416443 111.725677,262.699158 
M558.987732,263.966980 
	C561.056458,264.291992 563.120117,264.848755 565.195007,264.894623 
	C569.768494,264.995819 575.923767,260.179382 576.892212,255.984756 
	C578.309204,249.847336 575.399048,243.782303 569.676514,240.946518 
	C565.095825,238.676575 558.340698,240.130875 555.036743,244.098297 
	C549.868896,250.303879 550.847412,256.276764 558.987732,263.966980 
M275.021423,248.667816 
	C275.021088,249.834198 275.020538,251.000580 275.020477,252.166962 
	C275.019928,264.121979 275.019928,264.121826 286.808441,262.967102 
	C286.973816,262.950928 287.212830,263.029419 287.297485,262.944366 
	C288.863007,261.370789 291.743561,259.751587 291.711578,258.196198 
	C291.615295,253.513245 290.560211,248.810913 289.450439,244.219757 
	C289.219330,243.263535 287.220703,242.392731 285.905640,242.124390 
	C284.145599,241.765274 282.229065,242.239288 280.430664,241.989197 
	C275.811981,241.346878 274.407196,243.528000 275.021423,248.667816 
M507.356567,242.174042 
	C505.962280,242.174042 504.567993,242.174042 502.847931,242.174042 
	C502.847931,245.994705 502.847931,249.197342 502.847931,252.424774 
	C498.145020,249.510498 499.080658,239.930511 490.231140,242.448929 
	C490.231140,249.297073 490.231140,255.894958 490.231140,262.725952 
	C491.800751,262.725952 493.183960,262.725952 495.220703,262.725952 
	C495.220703,259.388916 495.220703,256.243286 495.220703,252.532272 
	C500.432068,255.430359 499.714172,264.526154 507.886047,262.636597 
	C507.886047,255.866821 507.886047,249.401108 507.356567,242.174042 
M227.006836,244.860886 
	C226.248260,243.929123 225.489700,242.997375 224.731110,242.065598 
	C223.836594,243.017578 222.375793,243.860870 222.167770,244.944626 
	C221.759247,247.073074 222.047577,249.335297 222.047577,251.542160 
	C219.634369,249.279968 218.495499,246.531433 216.593674,244.495575 
	C215.349075,243.163254 213.021896,242.437195 211.132294,242.337616 
	C210.492706,242.303925 209.192490,244.988464 209.088455,246.492645 
	C208.802292,250.629852 209.040878,254.800629 208.975723,258.956635 
	C208.909363,263.188690 210.982391,263.601593 214.382660,262.265228 
	C214.382660,258.779266 214.382660,255.480865 214.382660,252.044373 
	C219.771927,254.466446 218.278442,264.060760 227.010345,262.769592 
	C227.010345,257.045868 227.010345,251.421234 227.006836,244.860886 
M527.902466,243.445663 
	C523.929260,243.167633 519.541992,241.695496 516.081177,242.895340 
	C511.065033,244.634399 509.775543,251.158554 511.877167,257.469635 
	C513.582092,262.589478 515.388000,263.533325 522.208252,262.980591 
	C523.585449,262.868988 524.995056,263.076843 526.358398,262.898407 
	C527.431580,262.757965 529.348022,262.285522 529.363525,261.899200 
	C529.498779,258.531525 529.867493,254.985748 528.971130,251.832855 
	C528.414062,249.873474 521.100952,251.023621 518.803711,253.492432 
	C520.602905,254.747757 522.335754,255.956802 524.068604,257.165863 
	C523.993164,257.564423 523.917725,257.962952 523.842285,258.361511 
	C521.588867,258.231812 519.335388,258.102112 516.973328,257.966156 
	C516.973328,256.389008 516.976379,255.564560 516.972839,254.740128 
	C516.936462,246.148346 517.225159,246.006287 525.519836,248.119995 
	C529.371704,249.101532 529.393738,246.771118 527.902466,243.445663 
M348.988647,245.835892 
	C348.988922,250.322815 348.891663,254.813339 349.057129,259.294159 
	C349.099243,260.434418 349.664612,262.039185 350.524261,262.578827 
	C353.680786,264.560486 364.200226,262.921753 365.497162,259.612396 
	C366.935028,255.943207 367.294434,251.421478 366.624756,247.528824 
	C366.263428,245.428467 362.754211,242.365204 360.693542,242.387238 
	C356.871063,242.428116 352.067810,239.436783 349.030151,244.412872 
	C348.953918,244.537720 349.003845,244.739594 348.988647,245.835892 
M458.024017,247.757660 
	C458.024689,251.085144 457.956940,254.414551 458.050537,257.739410 
	C458.111053,259.890869 457.145233,262.799744 460.861633,262.930908 
	C464.571808,263.061890 463.867279,260.253387 463.968719,258.004486 
	C464.026031,256.734741 464.157837,255.468369 464.250031,254.278732 
	C466.664459,254.278732 468.733276,254.278732 470.407990,254.278732 
	C472.353058,257.290558 468.206970,263.384521 475.778992,262.813538 
	C475.778992,255.846115 475.778992,249.088165 475.778992,242.330368 
	C471.739594,242.337814 471.739594,242.337814 470.392395,248.716125 
	C468.293488,248.716125 466.212891,248.716125 464.132324,248.716125 
	C464.505341,248.320648 464.878387,247.925156 465.251434,247.529678 
	C463.762329,245.705154 462.540100,242.733276 460.724823,242.311066 
	C457.596191,241.583389 458.107941,244.758072 458.024017,247.757660 
M397.037415,246.942337 
	C396.706757,248.839462 396.225464,250.724762 396.075287,252.636063 
	C395.708832,257.301758 397.628876,261.073822 401.896027,262.794006 
	C406.341553,264.586121 413.063568,262.563080 414.699738,259.677643 
	C416.821808,255.935303 416.312744,247.784378 413.781494,244.975220 
	C409.509460,240.234207 402.817291,240.731400 397.037415,246.942337 
M417.493927,260.055420 
	C417.677429,261.003845 417.773834,262.733612 418.059509,262.765442 
	C419.296387,262.903351 421.566162,262.825195 421.709778,262.324005 
	C423.179565,257.194916 427.178925,259.458679 430.805634,258.862762 
	C430.597931,263.891144 433.708954,263.182159 437.161652,262.616333 
	C435.045258,256.443512 433.156952,250.434036 430.839081,244.595062 
	C430.370270,243.414017 428.318939,242.316833 426.920563,242.212967 
	C425.695007,242.121918 423.628906,243.184814 423.201355,244.247726 
	C421.211304,249.195160 419.661346,254.319611 417.493927,260.055420 
M146.630035,256.256409 
	C145.703522,257.117371 144.777023,257.978333 142.884857,259.736633 
	C146.589828,261.268372 149.405350,263.210327 152.362946,263.458435 
	C156.072968,263.769592 160.151047,262.637695 160.838226,258.010803 
	C161.469131,253.762909 158.568451,251.457932 154.915649,250.061615 
	C153.257278,249.427673 151.568527,248.873138 149.624771,248.187820 
	C152.887573,245.067780 158.063126,250.025330 160.442825,243.550339 
	C157.282303,242.992599 154.516235,242.493958 151.746246,242.018066 
	C147.401520,241.271637 144.585495,244.251297 144.593781,247.440811 
	C144.599426,249.624573 148.178513,251.951904 150.418884,253.920547 
	C151.795547,255.130280 153.660049,255.784851 155.305481,256.688690 
	C155.019455,257.368713 154.733414,258.048706 154.447388,258.728699 
	C152.028275,258.060181 149.609177,257.391693 146.630035,256.256409 
M346.195038,243.719360 
	C345.530243,243.162415 344.883301,242.150543 344.197693,242.123657 
	C340.261444,241.969299 336.315979,242.048523 332.370911,242.048523 
	C332.370911,249.297806 332.370911,256.015869 332.370911,262.803833 
	C337.326019,262.803833 341.948364,262.803833 347.013550,262.803833 
	C346.433777,255.398575 340.137726,259.447449 337.034912,257.419861 
	C336.869171,250.687790 344.994232,256.843781 346.018616,251.146774 
	C342.965424,250.363983 339.896698,249.577225 336.325928,248.661743 
	C340.507965,246.925369 343.603851,245.639969 346.195038,243.719360 
M265.443085,260.040833 
	C263.407318,259.688446 261.314545,259.520508 259.356812,258.915588 
	C258.150909,258.542938 257.151093,257.503265 256.058746,256.763092 
	C257.036011,255.856125 257.881012,254.463226 259.020721,254.152939 
	C260.857208,253.652954 262.888062,253.866852 264.836792,253.779160 
	C265.050140,253.336823 265.263458,252.894501 265.476776,252.452164 
	C264.246674,251.653702 263.079193,250.726120 261.769989,250.090683 
	C260.259888,249.357788 258.624664,248.882736 257.043793,248.295715 
	C258.769867,247.852615 260.491791,247.060059 262.222870,247.039551 
	C265.764862,246.997604 266.382568,245.297760 265.584320,242.046555 
	C261.853912,242.046555 258.179047,241.736221 254.607330,242.207458 
	C253.277664,242.382874 251.270294,244.303314 251.155548,245.571350 
	C250.738174,250.182831 250.775894,254.871689 251.135056,259.493042 
	C251.230438,260.720428 252.972885,262.638885 254.160110,262.805237 
	C257.416351,263.261414 260.786652,263.066162 264.094025,262.853180 
	C264.730042,262.812195 265.285187,261.516327 265.443085,260.040833 
M204.251205,258.997498 
	C201.956741,258.997498 199.662277,258.997498 197.257935,258.997498 
	C196.087219,251.535599 202.267654,255.218750 205.873642,252.673676 
	C204.278854,251.606262 203.200775,250.627487 201.934570,250.101715 
	C200.318787,249.430801 198.551056,249.125793 196.848816,248.663086 
	C205.477737,246.342575 205.477737,246.342575 205.468613,242.357849 
	C201.076401,242.357849 196.684189,242.357849 192.399292,242.357849 
	C192.399292,249.385696 192.399292,256.089874 192.399292,262.972321 
	C194.896500,262.972321 197.044449,262.972321 199.192383,262.972321 
	C201.315598,262.972321 203.438812,262.972321 206.312347,262.972321 
	C205.809250,261.280365 205.481857,260.179321 204.251205,258.997498 
M245.484009,255.177460 
	C243.228958,258.439301 237.888443,259.736603 236.919098,257.094330 
	C235.965820,254.495819 235.610458,251.008774 236.642776,248.626724 
	C237.177780,247.392258 241.273712,247.554520 243.781586,247.375885 
	C245.312546,247.266815 246.882767,247.709076 248.435364,247.903717 
	C248.626999,247.349075 248.818634,246.794434 249.010284,246.239792 
	C247.695496,245.035446 246.572327,243.247971 245.028488,242.740677 
	C241.057999,241.435944 236.913177,241.103104 233.415146,244.175812 
	C230.943787,246.346680 229.053314,255.439423 231.409073,258.300262 
	C233.485718,260.822113 237.158890,263.022552 240.327225,263.334991 
	C242.818954,263.580688 245.672150,260.813629 248.163422,259.093262 
	C248.349976,258.964447 246.918228,256.492157 245.484009,255.177460 
M442.955627,253.487350 
	C443.141541,247.225204 445.727814,245.547043 451.403198,247.811951 
	C452.330505,248.182007 453.585144,247.731857 454.688477,247.660812 
	C454.447906,246.294388 454.663818,244.525299 453.880707,243.637482 
	C451.584686,241.034607 442.847107,241.497726 440.512207,244.072311 
	C437.898865,246.953903 437.036255,255.143478 439.000946,258.420319 
	C441.645508,262.831055 445.692566,264.467590 451.421906,262.831207 
	C453.107605,262.349731 454.947571,260.750580 455.681000,259.179932 
	C456.164246,258.145081 454.795532,256.245361 454.151245,254.439072 
	C448.657196,259.586273 444.307556,259.302887 442.955627,253.487350 
M377.089569,257.104034 
	C378.456696,261.533203 382.073029,263.334045 386.087708,263.308929 
	C388.663055,263.292816 391.490967,261.784332 393.644440,260.187805 
	C394.344971,259.668427 393.270111,256.754364 393.056824,255.278366 
	C389.473785,257.060333 386.788239,258.395966 383.515869,260.023438 
	C382.833893,256.870636 382.114685,254.860275 382.012421,252.819031 
	C381.738678,247.353455 384.887238,244.983688 389.690796,247.434250 
	C391.680359,248.449219 393.132965,248.851837 393.692841,246.938309 
	C393.997833,245.896057 392.569763,243.542328 391.376129,243.012283 
	C387.313293,241.208160 382.738556,240.812164 379.513123,244.269562 
	C376.513092,247.485321 374.991150,251.709488 377.089569,257.104034 
M167.422623,249.101303 
	C169.086319,245.448059 172.166580,247.267654 174.715485,247.305130 
	C176.414429,247.330093 178.106979,247.788895 180.192581,248.114471 
	C179.021744,240.950867 174.398605,241.962234 170.462463,242.077789 
	C166.402283,242.196976 162.561707,245.886108 162.044067,249.732941 
	C161.249359,255.638840 163.664551,261.384827 167.524857,262.772247 
	C172.756439,264.652527 177.548325,262.901794 181.053986,257.635437 
	C180.037857,256.725891 178.991959,255.789703 177.958847,254.864960 
	C177.295898,255.397934 176.957550,255.806488 176.523529,255.996002 
	C174.262497,256.983337 171.977127,257.915009 169.700226,258.866058 
	C168.805710,256.539520 167.863876,254.229324 167.050003,251.874908 
	C166.846619,251.286530 167.055420,250.555664 167.422623,249.101303 
M479.984741,254.419128 
	C479.984772,255.585739 479.971008,256.752533 479.987152,257.918915 
	C480.059296,263.122681 480.456665,263.419739 485.758514,262.267517 
	C485.758514,255.646469 485.758514,249.025436 485.758514,242.391846 
	C481.548370,241.287033 479.560364,242.545853 479.951813,246.963135 
	C480.142334,249.112793 479.984772,251.293320 479.984741,254.419128 
M187.970200,252.498260 
	C187.970200,249.060272 187.970200,245.622269 187.970200,241.885468 
	C185.927582,242.104813 184.542236,242.253571 183.273987,242.389755 
	C183.273987,249.410614 183.273987,256.011475 183.273987,262.677643 
	C184.904739,262.677643 186.285553,262.677643 187.970032,262.677643 
	C187.970032,259.419647 187.970032,256.448486 187.970200,252.498260 
z"/>
<path fill="#FE6B01" opacity="1.000000" stroke="none" 
	d="
M345.795929,225.949966 
	C345.553375,224.217468 345.100159,222.485138 345.098907,220.752472 
	C345.061707,169.513855 345.148163,118.274956 344.967621,67.036957 
	C344.945709,60.813435 345.468536,55.981937 351.345093,51.931980 
	C361.047729,45.245216 369.971954,37.428902 379.606750,30.599747 
	C380.026062,52.431694 380.062836,73.752518 380.099609,95.073341 
	C380.099640,126.863327 380.099640,158.653305 380.099640,190.755981 
	C388.305237,190.755981 396.371216,190.755981 404.923523,190.755981 
	C404.923523,160.034012 404.923523,129.313934 404.923523,98.331573 
	C431.805939,98.331573 458.206329,98.331573 485.135437,98.331573 
	C485.135437,126.088509 485.135437,153.727646 485.135437,181.664154 
	C473.016144,181.664154 461.422119,181.664154 449.039459,181.664154 
	C449.039459,180.224289 449.039032,178.647003 449.039459,177.069717 
	C449.043091,164.242447 448.918274,151.413086 449.127228,138.589157 
	C449.192017,134.614395 447.467133,133.888641 444.024445,133.871582 
	C440.606445,133.854645 438.838623,134.479309 438.878387,138.499573 
	C439.052704,156.134476 438.953522,173.772095 438.953522,192.063034 
	C458.458710,192.063034 477.709839,192.063034 497.769653,191.793701 
	C498.720245,189.550720 498.983948,187.577209 498.986053,185.603424 
	C499.031464,143.002609 499.047668,100.401779 499.069489,57.800957 
	C509.144592,48.960194 519.219727,40.119423 530.013794,31.195053 
	C531.169006,32.910275 531.981934,34.708298 531.985718,36.508034 
	C532.057312,70.377487 532.033081,104.247154 532.028809,138.116776 
	C532.028809,155.563049 532.028809,173.009323 532.028809,190.854553 
	C561.975037,190.854553 591.693481,190.854553 621.411865,190.854553 
	C621.781799,191.277924 622.151733,191.701294 622.521606,192.124680 
	C613.268799,203.304977 604.015991,214.485291 593.984863,225.817780 
	C510.736328,225.963272 428.266144,225.956619 345.795929,225.949966 
z"/>
<path fill="#FD6B01" opacity="1.000000" stroke="none" 
	d="
M140.088760,224.095108 
	C139.937775,224.647064 139.786804,225.199036 138.895798,225.871460 
	C110.036560,225.976791 81.917343,225.961624 53.798122,225.946472 
	C53.555161,224.712860 53.100311,223.479385 53.099636,222.245636 
	C53.065441,160.020401 53.069687,97.795166 53.074944,35.569920 
	C53.075001,34.910484 53.143276,34.251060 53.230988,32.663223 
	C54.878288,33.569981 56.427448,33.975605 57.303341,34.972675 
	C68.438187,47.647945 79.481575,60.403622 90.522552,73.161064 
	C91.036331,73.754715 91.308578,74.557404 91.850388,76.047867 
	C92.038673,98.579239 92.069878,120.325470 92.101082,142.071701 
	C92.101082,155.520874 92.101082,168.970047 92.101082,182.739578 
	C95.355766,182.739578 98.417686,182.739578 102.065193,182.739578 
	C102.065193,180.960510 102.065369,179.188904 102.065170,177.417313 
	C102.061546,144.137115 102.137405,110.856499 101.958694,77.577248 
	C101.934998,73.164047 103.202827,71.939362 107.586334,71.971764 
	C132.877823,72.158752 158.171509,72.048744 183.464447,72.039581 
	C185.918213,72.038696 188.371964,72.039459 192.480743,72.039459 
	C179.538513,87.067215 167.653595,100.867294 155.001740,114.823730 
	C150.482513,115.340767 146.730225,115.701439 142.977921,116.062119 
	C142.977921,116.062119 142.981934,115.981506 142.695358,116.248695 
	C142.282776,121.377373 142.156769,126.238869 142.030746,131.100357 
	C141.995544,132.815414 141.960342,134.530487 141.620468,136.992508 
	C141.195679,156.213531 141.075531,174.687607 140.955383,193.161667 
	C140.955383,193.161667 140.912476,193.566132 140.610413,194.092743 
	C140.236084,198.083145 140.163803,201.546951 140.063751,205.477631 
	C140.053574,211.994720 140.071167,218.044907 140.088760,224.095108 
z"/>
<path fill="#FD6B02" opacity="1.000000" stroke="none" 
	d="
M161.891373,226.007660 
	C158.940933,222.302490 155.854156,218.695877 153.082169,214.861694 
	C150.769623,211.663010 148.826050,208.197601 146.268448,204.134460 
	C160.411667,204.134460 173.510315,204.134460 187.667984,204.134460 
	C179.466858,185.639893 171.569946,167.831375 163.218353,148.997498 
	C167.741852,148.997498 171.298096,148.997421 174.854324,148.997513 
	C182.351791,148.997711 189.859055,148.791687 197.339600,149.147614 
	C199.142456,149.233383 201.620636,150.764862 202.479980,152.343613 
	C206.263489,159.294647 209.634460,166.474884 213.028625,173.631958 
	C216.756104,181.491867 220.299530,189.439011 224.023483,197.300613 
	C225.077377,199.525482 226.482452,201.584015 227.888336,203.996613 
	C231.448227,203.996613 235.275742,203.876617 239.091797,204.034210 
	C242.203537,204.162704 243.121536,202.759598 243.105209,199.836472 
	C243.015900,183.842331 243.068909,167.847412 242.997208,151.853104 
	C242.991592,150.600281 242.231705,149.364639 242.125763,148.095673 
	C241.882507,145.182220 242.378510,143.003403 246.232529,143.014877 
	C275.217896,143.101318 304.203644,143.061996 333.838501,143.061996 
	C333.838501,170.591492 333.838501,197.993042 333.036255,225.678406 
	C275.453125,225.977356 218.672256,225.992508 161.891373,226.007660 
M280.947327,180.511475 
	C280.946136,187.005585 280.768433,193.508270 281.082855,199.987061 
	C281.151093,201.392731 282.816833,203.670761 284.038696,203.885437 
	C287.205322,204.441833 290.534637,204.072159 293.914856,204.072159 
	C293.914856,191.467728 293.914856,179.508163 293.914856,167.496841 
	C289.653656,167.711212 285.434021,167.923492 280.947083,168.149231 
	C280.947083,172.238861 280.947083,175.878510 280.947327,180.511475 
z"/>
<path fill="#FA6B04" opacity="1.000000" stroke="none" 
	d="
M426.059143,69.995117 
	C426.876709,58.821045 432.576660,51.862503 444.187073,50.251801 
	C450.759613,49.339996 460.597443,53.554054 463.350464,62.839718 
	C466.316437,72.843613 461.159088,85.565254 452.664520,87.893822 
	C438.986542,91.643303 430.853119,85.532806 426.261047,74.377510 
	C425.788239,73.228882 426.107422,71.754204 426.059143,69.995117 
z"/>
<path fill="#F76B05" opacity="1.000000" stroke="none" 
	d="
M111.346222,262.810974 
	C102.609177,265.416443 99.142906,263.819794 92.557732,254.442993 
	C89.837006,261.345428 84.176331,265.058289 78.120399,263.912537 
	C71.632683,262.685059 67.195282,257.518555 67.320122,251.337723 
	C67.445747,245.118073 72.064423,239.764099 77.910416,239.061493 
	C85.224937,238.182404 89.924660,241.304871 92.422699,248.931641 
	C95.778618,243.368179 99.280853,238.392624 106.811897,238.990295 
	C111.971664,239.399765 115.127243,242.504166 117.594788,246.339218 
	C119.474800,249.261108 117.557732,256.860046 114.898544,259.514374 
	C113.837967,260.573029 112.783127,261.637390 111.346222,262.810974 
z"/>
<path fill="#F76B06" opacity="1.000000" stroke="none" 
	d="
M558.617310,263.830109 
	C550.847412,256.276764 549.868896,250.303879 555.036743,244.098297 
	C558.340698,240.130875 565.095825,238.676575 569.676514,240.946518 
	C575.399048,243.782303 578.309204,249.847336 576.892212,255.984756 
	C575.923767,260.179382 569.768494,264.995819 565.195007,264.894623 
	C563.120117,264.848755 561.056458,264.291992 558.617310,263.830109 
z"/>
<path fill="#EB6D13" opacity="1.000000" stroke="none" 
	d="
M275.021790,248.193283 
	C274.407196,243.528000 275.811981,241.346878 280.430664,241.989197 
	C282.229065,242.239288 284.145599,241.765274 285.905640,242.124390 
	C287.220703,242.392731 289.219330,243.263535 289.450439,244.219757 
	C290.560211,248.810913 291.615295,253.513245 291.711578,258.196198 
	C291.743561,259.751587 288.863007,261.370789 287.297485,262.944366 
	C287.212830,263.029419 286.973816,262.950928 286.808441,262.967102 
	C275.019928,264.121826 275.019928,264.121979 275.020477,252.166962 
	C275.020538,251.000580 275.021088,249.834198 275.021790,248.193283 
M286.947083,255.657288 
	C286.183075,255.100174 285.425812,254.096069 284.653595,254.084473 
	C283.294220,254.064056 281.816742,254.450958 280.626892,255.102356 
	C280.266327,255.299759 280.443878,257.656250 280.799286,257.777252 
	C282.177734,258.246521 283.750336,258.428162 285.202515,258.271149 
	C285.864532,258.199585 286.414398,257.090179 286.947083,255.657288 
z"/>
<path fill="#EE6C0E" opacity="1.000000" stroke="none" 
	d="
M507.621307,242.554718 
	C507.886047,249.401108 507.886047,255.866821 507.886047,262.636597 
	C499.714172,264.526154 500.432068,255.430359 495.220703,252.532272 
	C495.220703,256.243286 495.220703,259.388916 495.220703,262.725952 
	C493.183960,262.725952 491.800751,262.725952 490.231140,262.725952 
	C490.231140,255.894958 490.231140,249.297073 490.231140,242.448929 
	C499.080658,239.930511 498.145020,249.510498 502.847931,252.424774 
	C502.847931,249.197342 502.847931,245.994705 502.847931,242.174042 
	C504.567993,242.174042 505.962280,242.174042 507.621307,242.554718 
z"/>
<path fill="#F56B08" opacity="1.000000" stroke="none" 
	d="
M227.008591,245.328735 
	C227.010345,251.421234 227.010345,257.045868 227.010345,262.769592 
	C218.278442,264.060760 219.771927,254.466446 214.382660,252.044373 
	C214.382660,255.480865 214.382660,258.779266 214.382660,262.265228 
	C210.982391,263.601593 208.909363,263.188690 208.975723,258.956635 
	C209.040878,254.800629 208.802292,250.629852 209.088455,246.492645 
	C209.192490,244.988464 210.492706,242.303925 211.132294,242.337616 
	C213.021896,242.437195 215.349075,243.163254 216.593674,244.495575 
	C218.495499,246.531433 219.634369,249.279968 222.047577,251.542160 
	C222.047577,249.335297 221.759247,247.073074 222.167770,244.944626 
	C222.375793,243.860870 223.836594,243.017578 224.731110,242.065613 
	C225.489700,242.997375 226.248260,243.929123 227.008591,245.328735 
z"/>
<path fill="#EB6B0E" opacity="1.000000" stroke="none" 
	d="
M528.191162,243.735016 
	C529.393738,246.771118 529.371704,249.101532 525.519836,248.119995 
	C517.225159,246.006287 516.936462,246.148346 516.972839,254.740128 
	C516.976379,255.564560 516.973328,256.389008 516.973328,257.966156 
	C519.335388,258.102112 521.588867,258.231812 523.842285,258.361511 
	C523.917725,257.962952 523.993164,257.564423 524.068604,257.165863 
	C522.335754,255.956802 520.602905,254.747757 518.803711,253.492432 
	C521.100952,251.023621 528.414062,249.873474 528.971130,251.832855 
	C529.867493,254.985748 529.498779,258.531525 529.363525,261.899200 
	C529.348022,262.285522 527.431580,262.757965 526.358398,262.898407 
	C524.995056,263.076843 523.585449,262.868988 522.208252,262.980591 
	C515.388000,263.533325 513.582092,262.589478 511.877167,257.469635 
	C509.775543,251.158554 511.065033,244.634399 516.081177,242.895340 
	C519.541992,241.695496 523.929260,243.167633 528.191162,243.735016 
z"/>
<path fill="#F26B09" opacity="1.000000" stroke="none" 
	d="
M348.991791,245.370712 
	C349.003845,244.739594 348.953918,244.537720 349.030151,244.412872 
	C352.067810,239.436783 356.871063,242.428116 360.693542,242.387238 
	C362.754211,242.365204 366.263428,245.428467 366.624756,247.528824 
	C367.294434,251.421478 366.935028,255.943207 365.497162,259.612396 
	C364.200226,262.921753 353.680786,264.560486 350.524261,262.578827 
	C349.664612,262.039185 349.099243,260.434418 349.057129,259.294159 
	C348.891663,254.813339 348.988922,250.322815 348.991791,245.370712 
M361.652191,249.167496 
	C359.682587,248.248627 357.712982,247.329758 355.228271,246.170578 
	C355.228271,250.991348 355.228271,254.413834 355.228271,257.822144 
	C361.697693,258.079834 362.110107,257.578827 361.652191,249.167496 
z"/>
<path fill="#EC6A0C" opacity="1.000000" stroke="none" 
	d="
M458.024200,247.295685 
	C458.107941,244.758072 457.596191,241.583389 460.724823,242.311066 
	C462.540100,242.733276 463.762329,245.705154 465.251434,247.529678 
	C464.878387,247.925156 464.505341,248.320648 464.132324,248.716125 
	C466.212891,248.716125 468.293488,248.716125 470.392395,248.716125 
	C471.739594,242.337814 471.739594,242.337814 475.778992,242.330368 
	C475.778992,249.088165 475.778992,255.846115 475.778992,262.813538 
	C468.206970,263.384521 472.353058,257.290558 470.407990,254.278732 
	C468.733276,254.278732 466.664459,254.278732 464.250031,254.278732 
	C464.157837,255.468369 464.026031,256.734741 463.968719,258.004486 
	C463.867279,260.253387 464.571808,263.061890 460.861633,262.930908 
	C457.145233,262.799744 458.111053,259.890869 458.050537,257.739410 
	C457.956940,254.414551 458.024689,251.085144 458.024200,247.295685 
z"/>
<path fill="#EF6B0C" opacity="1.000000" stroke="none" 
	d="
M397.191528,246.569336 
	C402.817291,240.731400 409.509460,240.234207 413.781494,244.975220 
	C416.312744,247.784378 416.821808,255.935303 414.699738,259.677643 
	C413.063568,262.563080 406.341553,264.586121 401.896027,262.794006 
	C397.628876,261.073822 395.708832,257.301758 396.075287,252.636063 
	C396.225464,250.724762 396.706757,248.839462 397.191528,246.569336 
M401.944031,248.402054 
	C401.635010,250.303223 400.730011,252.361877 401.179413,254.062653 
	C401.658325,255.875183 403.167603,258.293732 404.691193,258.697876 
	C406.132080,259.080109 409.235687,257.569519 409.717224,256.217834 
	C410.540039,253.908264 410.875549,250.212646 409.566437,248.704544 
	C408.312653,247.260193 404.706146,247.858154 401.944031,248.402054 
z"/>
<path fill="#EA6B0F" opacity="1.000000" stroke="none" 
	d="
M312.889557,259.348969 
	C312.889557,260.481110 312.889557,261.613281 312.889557,264.265076 
	C310.041016,262.632660 307.878448,261.783813 306.222870,260.349731 
	C303.950806,258.381714 300.505157,258.591522 298.487976,260.797913 
	C297.337280,262.056488 295.445557,262.637604 293.887482,263.523743 
	C293.464020,263.113922 293.040558,262.704102 292.617096,262.294250 
	C294.854156,255.982956 296.921967,249.600784 299.504242,243.434036 
	C299.907898,242.470016 302.690674,242.063705 304.300598,242.208420 
	C305.260681,242.294724 306.455414,243.810532 306.895660,244.937286 
	C308.762543,249.715225 310.386444,254.588104 312.508301,259.420532 
	C312.917511,259.414795 312.889557,259.348969 312.889557,259.348969 
z"/>
<path fill="#EF6B0C" opacity="1.000000" stroke="none" 
	d="
M417.723938,259.718079 
	C419.661346,254.319611 421.211304,249.195160 423.201355,244.247726 
	C423.628906,243.184814 425.695007,242.121918 426.920563,242.212967 
	C428.318939,242.316833 430.370270,243.414017 430.839081,244.595062 
	C433.156952,250.434036 435.045258,256.443512 437.161652,262.616333 
	C433.708954,263.182159 430.597931,263.891144 430.805634,258.862762 
	C427.178925,259.458679 423.179565,257.194916 421.709778,262.324005 
	C421.566162,262.825195 419.296387,262.903351 418.059509,262.765442 
	C417.773834,262.733612 417.677429,261.003845 417.723938,259.718079 
z"/>
<path fill="#B96428" opacity="1.000000" stroke="none" 
	d="
M346.038635,226.331329 
	C428.266144,225.956619 510.736328,225.963272 593.691040,225.966156 
	C592.832397,226.309616 591.489502,226.959991 590.146240,226.960770 
	C509.678925,227.007187 429.211578,227.001007 348.744263,226.986359 
	C347.923279,226.986221 347.102325,226.807846 346.038635,226.331329 
z"/>
<path fill="#EB6A0E" opacity="1.000000" stroke="none" 
	d="
M146.910049,256.489807 
	C149.609177,257.391693 152.028275,258.060181 154.447388,258.728699 
	C154.733414,258.048706 155.019455,257.368713 155.305481,256.688690 
	C153.660049,255.784851 151.795547,255.130280 150.418884,253.920547 
	C148.178513,251.951904 144.599426,249.624573 144.593781,247.440811 
	C144.585495,244.251297 147.401520,241.271637 151.746246,242.018066 
	C154.516235,242.493958 157.282303,242.992599 160.442825,243.550339 
	C158.063126,250.025330 152.887573,245.067780 149.624771,248.187820 
	C151.568527,248.873138 153.257278,249.427673 154.915649,250.061615 
	C158.568451,251.457932 161.469131,253.762909 160.838226,258.010803 
	C160.151047,262.637695 156.072968,263.769592 152.362946,263.458435 
	C149.405350,263.210327 146.589828,261.268372 142.884857,259.736633 
	C144.777023,257.978333 145.703522,257.117371 146.910049,256.489807 
z"/>
<path fill="#ED6C0F" opacity="1.000000" stroke="none" 
	d="
M346.447388,244.036957 
	C343.603851,245.639969 340.507965,246.925369 336.325928,248.661743 
	C339.896698,249.577225 342.965424,250.363983 346.018616,251.146774 
	C344.994232,256.843781 336.869171,250.687790 337.034912,257.419861 
	C340.137726,259.447449 346.433777,255.398575 347.013550,262.803833 
	C341.948364,262.803833 337.326019,262.803833 332.370911,262.803833 
	C332.370911,256.015869 332.370911,249.297806 332.370911,242.048523 
	C336.315979,242.048523 340.261444,241.969299 344.197693,242.123657 
	C344.883301,242.150543 345.530243,243.162415 346.447388,244.036957 
z"/>
<path fill="#F46C09" opacity="1.000000" stroke="none" 
	d="
M265.660370,260.420105 
	C265.285187,261.516327 264.730042,262.812195 264.094025,262.853180 
	C260.786652,263.066162 257.416351,263.261414 254.160110,262.805237 
	C252.972885,262.638885 251.230438,260.720428 251.135056,259.493042 
	C250.775894,254.871689 250.738174,250.182831 251.155548,245.571350 
	C251.270294,244.303314 253.277664,242.382874 254.607330,242.207458 
	C258.179047,241.736221 261.853912,242.046555 265.584320,242.046555 
	C266.382568,245.297760 265.764862,246.997604 262.222870,247.039551 
	C260.491791,247.060059 258.769867,247.852615 257.043793,248.295715 
	C258.624664,248.882736 260.259888,249.357788 261.769989,250.090683 
	C263.079193,250.726120 264.246674,251.653702 265.476776,252.452164 
	C265.263458,252.894501 265.050140,253.336823 264.836792,253.779160 
	C262.888062,253.866852 260.857208,253.652954 259.020721,254.152939 
	C257.881012,254.463226 257.036011,255.856125 256.058746,256.763092 
	C257.151093,257.503265 258.150909,258.542938 259.356812,258.915588 
	C261.314545,259.520508 263.407318,259.688446 265.660370,260.420105 
z"/>
<path fill="#ED6B0E" opacity="1.000000" stroke="none" 
	d="
M313.160461,259.659668 
	C312.889557,259.348969 312.917511,259.414795 312.918030,259.448242 
	C314.094788,258.022308 314.759521,256.231323 317.530670,257.637360 
	C319.252289,258.510925 321.778076,257.799561 323.942932,257.799561 
	C324.036499,257.310486 324.130096,256.821442 324.223663,256.332367 
	C322.240448,255.535217 320.308594,254.555115 318.262878,253.980362 
	C314.438019,252.905716 313.643463,250.137650 314.054108,246.778290 
	C314.488281,243.225937 316.822449,241.838058 320.246979,242.023514 
	C322.065552,242.121994 324.011963,241.866943 325.654755,242.456589 
	C326.654663,242.815491 327.186188,244.479309 327.928101,245.556961 
	C326.863159,246.110214 325.844482,246.981400 324.722778,247.144592 
	C322.889893,247.411255 320.989868,247.216690 318.952026,247.652466 
	C323.053711,250.697891 330.874664,250.261566 328.812714,258.336090 
	C328.359192,260.112091 326.266205,262.389740 324.573975,262.743866 
	C320.658234,263.563263 316.234344,264.443787 313.160461,259.659668 
z"/>
<path fill="#F46C0A" opacity="1.000000" stroke="none" 
	d="
M204.702835,259.037903 
	C205.481857,260.179321 205.809250,261.280365 206.312347,262.972321 
	C203.438812,262.972321 201.315598,262.972321 199.192383,262.972321 
	C197.044449,262.972321 194.896500,262.972321 192.399292,262.972321 
	C192.399292,256.089874 192.399292,249.385696 192.399292,242.357849 
	C196.684189,242.357849 201.076401,242.357849 205.471161,242.351212 
	C205.477737,246.342575 205.477737,246.342575 196.848816,248.663086 
	C198.551056,249.125793 200.318787,249.430801 201.934570,250.101715 
	C203.200775,250.627487 204.278854,251.606262 205.873642,252.673676 
	C202.267654,255.218750 196.087219,251.535599 197.257935,258.997498 
	C199.662277,258.997498 201.956741,258.997498 204.702835,259.037903 
z"/>
<path fill="#F26C0B" opacity="1.000000" stroke="none" 
	d="
M245.861389,255.143372 
	C246.918228,256.492157 248.349976,258.964447 248.163422,259.093262 
	C245.672150,260.813629 242.818954,263.580688 240.327225,263.334991 
	C237.158890,263.022552 233.485718,260.822113 231.409073,258.300262 
	C229.053314,255.439423 230.943787,246.346680 233.415146,244.175812 
	C236.913177,241.103104 241.057999,241.435944 245.028488,242.740677 
	C246.572327,243.247971 247.695496,245.035446 249.010284,246.239792 
	C248.818634,246.794434 248.626999,247.349075 248.435364,247.903717 
	C246.882767,247.709076 245.312546,247.266815 243.781586,247.375885 
	C241.273712,247.554520 237.177780,247.392258 236.642776,248.626724 
	C235.610458,251.008774 235.965820,254.495819 236.919098,257.094330 
	C237.888443,259.736603 243.228958,258.439301 245.861389,255.143372 
z"/>
<path fill="#F16B0B" opacity="1.000000" stroke="none" 
	d="
M442.961090,253.926849 
	C444.307556,259.302887 448.657196,259.586273 454.151245,254.439072 
	C454.795532,256.245361 456.164246,258.145081 455.681000,259.179932 
	C454.947571,260.750580 453.107605,262.349731 451.421906,262.831207 
	C445.692566,264.467590 441.645508,262.831055 439.000946,258.420319 
	C437.036255,255.143478 437.898865,246.953903 440.512207,244.072311 
	C442.847107,241.497726 451.584686,241.034607 453.880707,243.637482 
	C454.663818,244.525299 454.447906,246.294388 454.688477,247.660797 
	C453.585144,247.731857 452.330505,248.182007 451.403198,247.811951 
	C445.727814,245.547043 443.141541,247.225204 442.961090,253.926849 
z"/>
<path fill="#EF6B0C" opacity="1.000000" stroke="none" 
	d="
M377.057190,256.707397 
	C374.991150,251.709488 376.513092,247.485321 379.513123,244.269562 
	C382.738556,240.812164 387.313293,241.208160 391.376129,243.012283 
	C392.569763,243.542328 393.997833,245.896057 393.692841,246.938309 
	C393.132965,248.851837 391.680359,248.449219 389.690796,247.434250 
	C384.887238,244.983688 381.738678,247.353455 382.012421,252.819031 
	C382.114685,254.860275 382.833893,256.870636 383.515869,260.023438 
	C386.788239,258.395966 389.473785,257.060333 393.056824,255.278366 
	C393.270111,256.754364 394.344971,259.668427 393.644440,260.187805 
	C391.490967,261.784332 388.663055,263.292816 386.087708,263.308929 
	C382.073029,263.334045 378.456696,261.533203 377.057190,256.707397 
z"/>
<path fill="#EF6B0C" opacity="1.000000" stroke="none" 
	d="
M167.248688,249.495789 
	C167.055420,250.555664 166.846619,251.286530 167.050003,251.874908 
	C167.863876,254.229324 168.805710,256.539520 169.700226,258.866058 
	C171.977127,257.915009 174.262497,256.983337 176.523529,255.996002 
	C176.957550,255.806488 177.295898,255.397934 177.958847,254.864960 
	C178.991959,255.789703 180.037857,256.725891 181.053986,257.635437 
	C177.548325,262.901794 172.756439,264.652527 167.524857,262.772247 
	C163.664551,261.384827 161.249359,255.638840 162.044067,249.732941 
	C162.561707,245.886108 166.402283,242.196976 170.462463,242.077789 
	C174.398605,241.962234 179.021744,240.950867 180.192581,248.114471 
	C178.106979,247.788895 176.414429,247.330093 174.715485,247.305130 
	C172.166580,247.267654 169.086319,245.448059 167.248688,249.495789 
z"/>
<path fill="#B76328" opacity="1.000000" stroke="none" 
	d="
M162.118225,226.387238 
	C218.672256,225.992508 275.453125,225.977356 332.722717,225.954742 
	C332.031464,226.297913 330.851807,226.954239 329.671539,226.955261 
	C274.387329,227.003220 219.103073,226.994766 163.818832,226.982391 
	C163.327560,226.982285 162.836334,226.841751 162.118225,226.387238 
z"/>
<path fill="#AA5B23" opacity="1.000000" stroke="none" 
	d="
M498.684387,58.039410 
	C499.047668,100.401779 499.031464,143.002609 498.986053,185.603424 
	C498.983948,187.577209 498.720245,189.550720 498.230774,191.778610 
	C497.922150,149.265472 497.957458,106.498077 498.012451,63.730713 
	C498.014801,61.912975 498.199493,60.095478 498.684387,58.039410 
z"/>
<path fill="#F16B0B" opacity="1.000000" stroke="none" 
	d="
M479.984741,253.939499 
	C479.984772,251.293320 480.142334,249.112793 479.951813,246.963135 
	C479.560364,242.545853 481.548370,241.287033 485.758514,242.391846 
	C485.758514,249.025436 485.758514,255.646469 485.758057,262.268280 
	C480.456665,263.419739 480.059296,263.122681 479.987152,257.918915 
	C479.971008,256.752533 479.984772,255.585739 479.984741,253.939499 
z"/>
<path fill="#C06727" opacity="1.000000" stroke="none" 
	d="
M532.406006,137.886536 
	C532.033081,104.247154 532.057312,70.377487 531.985718,36.508034 
	C531.981934,34.708298 531.169006,32.910275 530.316162,31.046314 
	C530.647827,30.278101 531.396118,29.575027 532.977417,28.089184 
	C532.977417,30.652651 532.976868,32.069153 532.977539,33.485653 
	C532.993835,66.556244 533.013611,99.626839 533.015991,132.697433 
	C533.016113,134.350388 532.864380,136.003342 532.406006,137.886536 
z"/>
<path fill="#EF6E10" opacity="1.000000" stroke="none" 
	d="
M187.970123,252.987793 
	C187.970032,256.448486 187.970032,259.419647 187.970032,262.677643 
	C186.285553,262.677643 184.904739,262.677643 183.273987,262.677643 
	C183.273987,256.011475 183.273987,249.410614 183.273987,242.389755 
	C184.542236,242.253571 185.927582,242.104813 187.970200,241.885468 
	C187.970200,245.622269 187.970200,249.060272 187.970123,252.987793 
z"/>
<path fill="#B96428" opacity="1.000000" stroke="none" 
	d="
M54.038086,226.329865 
	C81.917343,225.961624 110.036560,225.976791 138.633514,225.994629 
	C138.098297,226.330963 137.085846,226.954147 136.072296,226.955978 
	C109.294624,227.004578 82.516830,226.990417 55.739067,226.973068 
	C55.252007,226.972748 54.765053,226.803604 54.038086,226.329865 
z"/>
<path fill="#AF5E25" opacity="1.000000" stroke="none" 
	d="
M92.462112,141.832077 
	C92.069878,120.325470 92.038673,98.579239 92.006088,76.354645 
	C92.329903,76.556564 92.939133,77.236877 92.939064,77.917114 
	C92.937019,99.142235 92.875534,120.367340 92.462112,141.832077 
z"/>
<path fill="#AF5E25" opacity="1.000000" stroke="none" 
	d="
M380.460999,94.833786 
	C380.062836,73.752518 380.026062,52.431694 379.956573,30.656504 
	C380.271545,30.810003 380.922729,31.417803 380.922882,32.025749 
	C380.927490,52.881905 380.870514,73.738075 380.460999,94.833786 
z"/>
<path fill="#C06727" opacity="1.000000" stroke="none" 
	d="
M141.344894,192.935883 
	C141.075531,174.687607 141.195679,156.213531 141.554474,137.416656 
	C141.773560,155.632599 141.753983,174.171341 141.344894,192.935883 
z"/>
<path fill="#B96428" opacity="1.000000" stroke="none" 
	d="
M140.451721,223.854279 
	C140.071167,218.044907 140.053574,211.994720 140.247742,205.474808 
	C140.459518,205.005096 140.829163,205.003326 140.829163,205.003326 
	C140.824326,211.206696 140.819504,217.410065 140.451721,223.854279 
z"/>
<path fill="#B76328" opacity="1.000000" stroke="none" 
	d="
M142.407135,130.874756 
	C142.156769,126.238869 142.282776,121.377373 142.735657,116.246635 
	C142.969543,120.867981 142.876526,125.758575 142.407135,130.874756 
z"/>
<path fill="#B76328" opacity="1.000000" stroke="none" 
	d="
M143.438019,116.032043 
	C146.730225,115.701439 150.482513,115.340767 154.709412,114.970718 
	C151.422058,115.308220 147.660095,115.655098 143.438019,116.032043 
z"/>
<path fill="#C06727" opacity="1.000000" stroke="none" 
	d="
M140.900024,204.549438 
	C140.829163,205.003326 140.459518,205.005096 140.275528,205.007935 
	C140.163803,201.546951 140.236084,198.083145 140.546936,194.285919 
	C140.847305,197.333527 140.909088,200.714554 140.900024,204.549438 
z"/>
<path fill="#FFFFFF" opacity="1.000000" stroke="none" 
	d="
M280.947205,180.014816 
	C280.947083,175.878510 280.947083,172.238861 280.947083,168.149231 
	C285.434021,167.923492 289.653656,167.711212 293.914856,167.496841 
	C293.914856,179.508163 293.914856,191.467728 293.914856,204.072159 
	C290.534637,204.072159 287.205322,204.441833 284.038696,203.885437 
	C282.816833,203.670761 281.151093,201.392731 281.082855,199.987061 
	C280.768433,193.508270 280.946136,187.005585 280.947205,180.014816 
z"/>
<path fill="#FFFFFF" opacity="1.000000" stroke="none" 
	d="
M286.981079,256.054382 
	C286.414398,257.090179 285.864532,258.199585 285.202515,258.271149 
	C283.750336,258.428162 282.177734,258.246521 280.799286,257.777252 
	C280.443878,257.656250 280.266327,255.299759 280.626892,255.102356 
	C281.816742,254.450958 283.294220,254.064056 284.653595,254.084473 
	C285.425812,254.096069 286.183075,255.100174 286.981079,256.054382 
z"/>
<path fill="#FFFFFF" opacity="1.000000" stroke="none" 
	d="
M361.809570,249.565292 
	C362.110107,257.578827 361.697693,258.079834 355.228271,257.822144 
	C355.228271,254.413834 355.228271,250.991348 355.228271,246.170578 
	C357.712982,247.329758 359.682587,248.248627 361.809570,249.565292 
z"/>
<path fill="#FFFFFF" opacity="1.000000" stroke="none" 
	d="
M402.038849,247.980286 
	C404.706146,247.858154 408.312653,247.260193 409.566437,248.704544 
	C410.875549,250.212646 410.540039,253.908264 409.717224,256.217834 
	C409.235687,257.569519 406.132080,259.080109 404.691193,258.697876 
	C403.167603,258.293732 401.658325,255.875183 401.179413,254.062653 
	C400.730011,252.361877 401.635010,250.303223 402.038849,247.980286 
z"/>
</svg>